<svg viewBox="-22 0 512 512.00033" xmlns="http://www.w3.org/2000/svg"><path d="m257.476562 294.683594-28.453124 16.726562c-4.300782 2.527344-7.730469 6.304688-9.835938 10.828125l-63.160156 135.617188-33.109375-15.824219 206.753906-433.457031c.511719-1.066407 2.011719-1.109375 2.582031-.074219l16.203125 29.527344c3.183594 5.804687 3.648438 12.71875 1.269531 18.898437l-81.589843 224.933594c-1.953125 5.386719-5.726563 9.921875-10.660157 12.824219zm0 0" fill="#c7cfe2"/><path d="m211.03125 294.625 28.410156 16.796875c4.292969 2.539063 7.714844 6.324219 9.808594 10.851563l62.824219 135.769531 33.148437-15.742188-205.691406-433.960937c-.507812-1.070313-2.007812-1.113282-2.578125-.082032l-16.277344 29.488282c-3.199219 5.796875-3.679687 12.710937-1.316406 18.894531l81.039063 225.136719c1.941406 5.390625 5.703124 9.933594 10.632812 12.847656zm0 0" fill="#e4eaf7"/><path d="m452.398438 389.613281c-19.007813-40.109375-66.898438-57.195312-106.964844-38.164062-40.0625 19.027343-57.132813 66.96875-38.125 107.074219 19.011718 40.105468 66.902344 57.191406 106.964844 38.160156 40.066406-19.027344 57.136718-66.964844 38.125-107.070313zm-56.027344 69.300781c-19.222656 9.132813-42.207032.933594-51.328125-18.3125-9.125-19.246093-.929688-42.25 18.292969-51.382812 19.226562-9.132812 42.207031-.933594 51.332031 18.3125 9.121093 19.246094.929687 42.25-18.296875 51.382812zm0 0" fill="#01c8f0"/><path d="m452.398438 389.613281c-15.054688-31.765625-48.226563-49.070312-81.277344-45.445312 26.761718 2.953125 51.421875 19.304687 63.808594 45.445312 19.011718 40.105469 1.941406 88.042969-38.125 107.070313-8.332032 3.960937-17.003907 6.332031-25.683594 7.285156 14.300781 1.578125 29.199218-.65625 43.152344-7.285156 40.066406-19.027344 57.136718-66.964844 38.125-107.070313zm0 0" fill="#01a3dc"/><path d="m363.335938 389.21875c2.539062-1.203125 5.140624-2.097656 7.765624-2.714844-8.1875-1.90625-17.046874-1.171875-25.230468 2.714844-19.226563 9.132812-27.417969 32.136719-18.296875 51.382812 7.921875 16.707032 26.28125 25.082032 43.566406 21.027344-11.042969-2.574218-20.859375-9.972656-26.097656-21.027344-9.121094-19.246093-.929688-42.25 18.292969-51.382812zm0 0" fill="#01a3dc"/><path d="m137.394531 318.183594c-38.394531-18.414063-84.429687-2.179688-102.824219 36.253906l-18.316406 38.273438c-18.394531 38.433593-2.175781 84.519531 36.21875 102.929687 38.394532 18.414063 84.429688 2.179687 102.824219-36.253906l18.316406-38.273438c18.394531-38.433593 2.179688-84.519531-36.21875-102.929687zm1.664063 88.609375-15.910156 33.246093c-9.195313 19.214844-32.207032 27.328126-51.398438 18.125-19.195312-9.207031-27.300781-32.238281-18.105469-51.453124l15.910157-33.246094c9.195312-19.210938 32.207031-27.324219 51.398437-18.121094 19.195313 9.203125 27.300781 32.238281 18.105469 51.449219zm0 0" fill="#01c8f0"/><path d="m137.394531 318.183594c-13.789062-6.613282-28.5625-8.734375-42.691406-6.988282 8.058594 1.003907 16.097656 3.28125 23.828125 6.988282 38.394531 18.410156 54.609375 64.492187 36.214844 102.929687l-18.316406 38.273438c-11.785157 24.628906-34.925782 40.117187-60.128907 43.238281 31.980469 3.96875 64.304688-12.542969 78.996094-43.238281l18.316406-38.273438c18.394531-38.433593 2.179688-84.519531-36.21875-102.929687zm0 0" fill="#01a3dc"/><path d="m69.554688 373.464844c5.144531-10.753906 14.621093-18.023438 25.332031-20.734375-17.429688-4.429688-36.132813 3.878906-44.199219 20.734375l-15.910156 33.246094c-9.195313 19.214843-1.089844 42.25 18.105468 51.453124 8.449219 4.050782 17.640626 4.742188 26.066407 2.613282-2.4375-.621094-4.847657-1.484375-7.203125-2.613282-19.191406-9.207031-27.296875-32.238281-18.101563-51.453124zm0 0" fill="#01a3dc"/><path d="m459.1875 386.394531c-10.054688-21.210937-27.757812-37.230469-49.851562-45.113281s-45.929688-6.679688-67.121094 3.382812c-10.054688 4.777344-18.78125 11.230469-26.015625 18.871094l-39.488281-83.3125 80.054687-220.671875c3.144531-8.246093 2.519531-17.402343-1.726563-25.140625l-16.195312-29.511718c-1.625-2.96875-4.730469-4.761719-8.113281-4.660157-3.375.09375-6.378907 2.046875-7.835938 5.101563l-68.992187 144.640625c-1.785156 3.746093-.195313 8.226562 3.546875 10.011719 3.742187 1.785156 8.226562.199218 10.011719-3.542969l63.898437-133.96875 10.511719 19.152343c2.125 3.875 2.433594 8.46875.847656 12.601563-.015625.042969-.03125.085937-.050781.132813l-75.007813 206.761718-24.984375-52.714844 9.871094-20.703124c1.785156-3.742188.199219-8.222657-3.546875-10.007813-3.738281-1.785156-8.222656-.199219-10.011719 3.542969l-4.609375 9.667968-88.066406-185.800781c-1.453125-3.054687-4.457031-5.0156248-7.835938-5.10937475-3.40625-.08984375-6.484374 1.68359375-8.101562 4.62890575l-16.265625 29.480469c-4.273437 7.71875-4.925781 16.875-1.796875 25.136719l79.511719 220.875-24.023438 50.375c-6.660156-7.097656-14.699219-13.113281-23.984375-17.566406l-6.238281-2.992188c-19.558594-9.378906-41.59375-10.574218-62.050781-3.367187-20.457032 7.207031-36.878906 21.949219-46.242188 41.511719l-21.34375 44.597656c-19.300781 40.335937-2.203125 88.875 38.113282 108.210937l6.234374 2.988281c11.125 5.332032 23.050782 8.019532 35.03125 8.019532 9.082032 0 18.199219-1.542969 27.019532-4.652344 20.457031-7.203125 36.878906-21.945312 46.242187-41.511719l21.34375-44.601562c1.378907-2.882813 2.554688-5.808594 3.566407-8.761719l40.503906-86.972656c1.464844-3.148438 3.832031-5.753906 6.828125-7.519532l1.402343-.824218 1.382813.816406c3.003906 1.78125 5.359375 4.390625 6.820313 7.550781l50.160156 108.382813c1.042968 9.445312 3.640625 18.875 7.933594 27.929687 10.054687 21.210938 27.757812 37.230469 49.847656 45.113281 9.640625 3.441407 19.605468 5.148438 29.542968 5.148438 12.84375 0 25.636719-2.855469 37.582032-8.53125 43.742187-20.773438 62.441406-73.292969 41.691406-117.074219zm-312.152344 72.859375c-7.628906 15.945313-21.011718 27.960938-37.683594 33.832032-16.671874 5.871093-34.628906 4.894531-50.566406-2.746094l-6.238281-2.992188c-32.855469-15.753906-46.789063-55.3125-31.058594-88.179687l21.34375-44.597657c7.628907-15.945312 21.011719-27.960937 37.683594-33.832031 16.671875-5.871093 34.628906-4.894531 50.566406 2.746094l6.234375 2.992187c32.859375 15.753907 46.789063 55.3125 31.0625 88.179688zm65.34375-140.191406-24.027344 51.59375c-1.839843-9.421875-5.347656-18.464844-10.332031-26.691406l22.8125-47.835938c1.898438 1.902344 4.035157 3.578125 6.375 4.960938l12.882813 7.613281c-3.230469 2.882813-5.855469 6.382813-7.710938 10.359375zm30.882813-14.109375-28.410157-16.789063c-3.421874-2.023437-6.039062-5.191406-7.382812-8.929687l-81.042969-225.132813c-.019531-.042968-.035156-.089843-.050781-.132812-1.582031-4.136719-1.261719-8.722656.878906-12.589844l10.558594-19.132812 89.730469 189.304687c.007812.019531.019531.042969.027343.0625l34.207032 72.171875c.003906.003906.003906.007813.003906.007813l44.082031 93.003906c-5.074219 7.984375-8.832031 16.734375-11.132812 25.875l-38.667969-83.550781c-2.738281-5.925782-7.160156-10.820313-12.800781-14.167969zm167.792969 184.949219c-17.566407 8.34375-37.320313 9.335937-55.632813 2.804687-18.316406-6.535156-32.992187-19.816406-41.324219-37.402343-17.210937-36.300782-1.707031-79.851563 34.558594-97.074219 17.5625-8.339844 37.320312-9.335938 55.632812-2.804688 18.3125 6.535157 32.988282 19.816407 41.324219 37.402344 17.207031 36.304687 1.703125 79.847656-34.558593 97.074219zm0 0"/><path d="m395.316406 380.660156c-11.585937-4.132812-24.089844-3.503906-35.199218 1.773438-22.933594 10.894531-32.738282 38.429687-21.859376 61.382812 3.128907 6.601563 7.828126 12.425782 13.59375 16.835938 3.292969 2.523437 8.007813 1.898437 10.527344-1.394532 2.523438-3.292968 1.898438-8.007812-1.394531-10.527343-3.933594-3.011719-7.015625-6.828125-9.15625-11.347657-7.335937-15.476562-.726563-34.039062 14.730469-41.382812 7.484375-3.554688 15.90625-3.976562 23.710937-1.195312 7.804688 2.785156 14.058594 8.449218 17.613281 15.941406 7.335938 15.476562.726563 34.042968-14.730468 41.382812-3.320313 1.578125-6.835938 2.546875-10.453125 2.878906-4.128907.378907-7.167969 4.035157-6.789063 8.167969.359375 3.894531 3.632813 6.820313 7.46875 6.820313.230469 0 .464844-.011719.699219-.03125 5.378906-.496094 10.597656-1.929688 15.515625-4.265625 22.933594-10.894531 32.738281-38.429688 21.859375-61.382813-5.269531-11.121094-14.550781-19.523437-26.136719-23.65625zm0 0"/><path d="m125.785156 349.332031-3.117187-1.496093c-10.679688-5.121094-22.714844-5.773438-33.886719-1.839844-11.175781 3.9375-20.144531 11.988281-25.257812 22.671875l-17.421876 36.410156c-10.542968 22.027344-1.203124 48.539063 20.816407 59.097656l3.113281 1.492188c6.074219 2.914062 12.589844 4.382812 19.132812 4.382812 4.960938 0 9.9375-.84375 14.757813-2.542969 11.171875-3.933593 20.140625-11.984374 25.253906-22.671874l4.707031-9.835938c1.792969-3.742188.210938-8.226562-3.527343-10.015625-3.742188-1.792969-8.226563-.210937-10.015625 3.53125l-4.710938 9.839844c-3.382812 7.0625-9.3125 12.386719-16.699218 14.988281-7.386719 2.601562-15.34375 2.167969-22.402344-1.21875l-3.117188-1.492188c-14.558594-6.980468-20.730468-24.507812-13.761718-39.074218l17.425781-36.40625c3.378906-7.066406 9.308593-12.386719 16.695312-14.988282 7.382813-2.605468 15.34375-2.171874 22.402344 1.214844l3.117187 1.496094c14.558594 6.980469 20.734376 24.507812 13.761719 39.070312-1.789062 3.742188-.207031 8.226563 3.535157 10.015626 3.734374 1.789062 8.222656.207031 10.015624-3.53125 10.542969-22.03125 1.203126-48.539063-20.816406-59.097657zm0 0"/><path d="m233.453125 264.039062c-4.339844.089844-7.789063 3.683594-7.699219 8.03125.089844 4.34375 3.683594 7.792969 8.023438 7.703126 4.339844-.089844 7.785156-3.683594 7.695312-8.027344-.089844-4.347656-3.679687-7.796875-8.019531-7.707032zm0 0"/></svg>